<svg xmlns="http://www.w3.org/2000/svg" xmlns:se="http://svg-edit.googlecode.com" xmlns:xlink="http://www.w3.org/1999/xlink" xmlns:dc="http://purl.org/dc/elements/1.1/" xmlns:cc="http://creativecommons.org/ns#" xmlns:rdf="http://www.w3.org/1999/02/22-rdf-syntax-ns#" xmlns:inkscape="http://www.inkscape.org/namespaces/inkscape" width="777" height="480">
                                    <title>my vector image</title>
                                    <!-- Created with Vector Paint - http://www.vectorpaint.yaks.com/ https://chrome.google.com/webstore/detail/hnbpdiengicdefcjecjbnjnoifekhgdo -->
                                    <rect id="backgroundrect" width="100%" height="100%" x="0" y="0" fill="#FFFFFF" stroke="none"/>
                                <g style="" class="currentLayer"><title>Layer 1</title><path fill="none" stroke="#222222" stroke-width="2" stroke-linejoin="round" stroke-dashoffset="" fill-rule="nonzero" marker-start="" marker-mid="" marker-end="" id="svg_1" d="M208.85779639255955,238.02328772065735 L282.06050689148606,164.82108021444265 L282.06050689148606,201.4216478832389 L311.41087171602385,201.4216478832389 L311.41087171602385,142.89139304674228 L369.94102065934106,142.89139304674228 L369.94102065934106,113.54101498553739 L333.3404265172554,113.54101498553739 L406.54263402347647,40.338476563063864 L479.74594017160257,113.54101498553739 L443.1442870975617,113.54101498553739 L443.1442870975617,142.89139304674228 L501.67456840733064,142.89139304674228 L501.67456840733064,201.4216478832389 L531.0249464685329,201.4216478832389 L531.0249464685329,164.82108021444265 L604.2281864334585,238.02328772065735 L531.0249464685329,311.226593868825 L531.0249464685329,274.6249407947466 L501.67456840733064,274.6249407947466 L501.67456840733064,333.1552088678934 L443.1442870975617,333.1552088678934 L443.1442870975617,362.50556045579646 L479.74594017160257,362.50556045579646 L406.54263402347647,435.7088401306469 L333.3404265172554,362.50556045579646 L369.94102065934106,362.50556045579646 L369.94102065934106,333.1552088678934 L311.41087171602385,333.1552088678934 L311.41087171602385,274.6249407947466 L282.06050689148606,274.6249407947466 L282.06050689148606,311.226593868825 L208.85779639255955,238.02328772065735 z" style="color: rgb(0, 0, 0);" class=""/></g></svg>