<svg xmlns="http://www.w3.org/2000/svg" xmlns:se="http://svg-edit.googlecode.com" xmlns:xlink="http://www.w3.org/1999/xlink" xmlns:dc="http://purl.org/dc/elements/1.1/" xmlns:cc="http://creativecommons.org/ns#" xmlns:rdf="http://www.w3.org/1999/02/22-rdf-syntax-ns#" xmlns:inkscape="http://www.inkscape.org/namespaces/inkscape" width="777" height="480" style="">
                                    <title>my vector image</title>
                                    <!-- Created with Vector Paint - http://www.vectorpaint.yaks.com/ https://chrome.google.com/webstore/detail/hnbpdiengicdefcjecjbnjnoifekhgdo -->
                                    <rect id="backgroundrect" width="100%" height="100%" x="0" y="0" fill="#FFFFFF" stroke="none"/>
                                <g style="" class="currentLayer"><title>Layer 1</title><path fill="none" stroke="#222222" stroke-width="2" stroke-linejoin="round" stroke-dashoffset="" fill-rule="nonzero" marker-start="" marker-mid="" marker-end="" id="svg_3" d="M447.6970848090517,56.3393340648544 C446.6624177177347,56.37059609077535 445.6625415730606,56.45388008170244 444.6236075168148,56.55271876228976 C428.00064663528485,58.13421397496539 413.3290950878393,68.21067626252338 405.87577801305224,83.22527167873415 L401.9241369553547,94.58778166347935 C402.7766669686739,90.650124952272 404.0857142909068,86.83128836301302 405.87577801305224,83.22527167873415 C392.58376660619035,70.07108736270311 373.92709350813107,63.999629471104484 355.4926062304304,66.84833578918594 C337.0581029716128,69.69702684258692 321.04854627223244,81.12155714536505 312.29920650612416,97.6818063500076 C287.5996480217701,83.15142124835643 256.8111624803454,84.03145948976848 232.9923726875993,99.97565750196725 C209.17358289487782,115.91984024948434 196.47821145198571,144.1503044772082 200.33661852592832,172.63167393934089 L202.86127143174963,184.20756862153294 C201.72040965034864,180.41518568995616 200.8684070147388,176.55713418634744 200.33661852592832,172.63167393934089 L199.95243186675617,173.69858216187177 C179.24769548636414,175.85379966176728 162.26725243433833,191.19818808093166 157.8566968964201,211.73366032772043 C153.44614135850225,232.26911730987206 162.61731935485915,253.3399059565844 180.57850912430473,263.95850794756245 L208.62403935705095,270.466626734426 C198.83127483371538,271.23656097534973 189.05445949030837,268.96946877429417 180.57850912430473,263.95850794756245 C166.72440898301778,278.78168451364945 163.5363788632822,300.7270466531164 172.6752749523534,318.85064138836754 C181.81415506028435,336.97420559431316 201.33150855421354,347.4098300927577 221.4668048747165,345.0430749194257 L233.7058507823972,341.94905023290806 C229.76788958246357,343.52344737817225 225.67805958791456,344.54807248945633 221.4668048747165,345.0430749194257 C232.89746068390042,365.14248159273455 251.85096751773887,379.8043259557326 274.10018540766043,385.6386778665483 C296.349403297584,391.473045042035 319.98183699077674,388.02488021811655 339.6861059242235,376.0899301776715 C355.7608656838868,400.3035293677742 384.2912797530031,413.0214344050565 412.9008644006834,408.7371019757372 C441.5104330672699,404.4527695464174 465.1105209285935,383.9081690322789 473.49237432917243,356.0321654998253 L476.40119791302595,340.4553878801765 C475.9656478627344,345.7472947943404 475.02052311132377,350.9499644997588 473.49237432917243,356.0321654998253 C493.170418208211,368.35821142215656 517.9231299716572,369.05282982525307 538.2550422849835,357.8458972663763 C558.5869545983109,346.6389647074989 571.2735204318019,325.26874446874973 571.4596368142112,301.99358611342205 L564.1705099946576,267.2171772686507 L535.4559771859439,243.68738910158783 C557.6595209713583,256.97248315116815 571.6577390532769,277.2136069380964 571.4596368142112,301.99358611342205 C597.8608033984802,302.2578631909414 620.2866928157445,280.6494989744736 630.349762378723,255.85008788557212 C640.4128319417467,231.05064626734094 636.6061558251877,202.77789892838132 620.3609092402713,181.54035912387522 C627.0991501060386,165.72810884217336 626.6993818332015,147.74177393947713 619.263276448582,132.24948621898207 C611.8271231205166,116.75719849848653 598.1106046326737,105.24257616592138 581.6130797365086,100.72252683998582 C577.9211482211753,80.18940535098275 562.7029776849438,63.672721489107715 542.5908380395747,58.25982687110394 C522.4786983941574,52.846932253100505 501.06292903374253,59.52151216919482 487.59745830914324,75.43695155987996 L479.41979596283295,88.61319331119805 C481.509378252652,83.84835987994296 484.23844594872435,79.40706094057703 487.59745830914324,75.43695155987996 C478.1053150522732,62.928599790094324 463.2172669710808,55.87055632264047 447.6970528467489,56.339395123501134 L447.6970848090517,56.3393340648544 z" style="color: rgb(0, 0, 0);" class=""/><path fill="none" stroke="#222222" stroke-width="2" stroke-linejoin="round" stroke-dashoffset="" fill-rule="nonzero" marker-start="" marker-mid="" marker-end="" id="svg_5" d="M326.47331515248516,220.14318775517629 L394.5288775243669,152.3162168844083 L462.58443989623305,220.14318775517629 L428.55665641888396,220.14318775517629 L428.55665641888396,288.2965293625686 L360.5010986298369,288.2965293625686 L360.5010986298369,220.14318775517629 L326.47331515248516,220.14318775517629 z" style="color: rgb(0, 0, 0);"/></g></svg>